<svg xmlns="http://www.w3.org/2000/svg" viewBox="0 0 32 32">
  <defs>
    <linearGradient id="grad" x1="0%" y1="0%" x2="100%" y2="100%">
      <stop offset="0%" style="stop-color:#6366f1"/>
      <stop offset="100%" style="stop-color:#8b5cf6"/>
    </linearGradient>
  </defs>
  <rect width="32" height="32" rx="6" fill="url(#grad)"/>
  <path d="M16 6c-4.4 0-8 2.5-8 5.5 0 2 1.5 3.7 4 4.5-2.5.8-4 2.5-4 4.5 0 3 3.6 5.5 8 5.5s8-2.5 8-5.5c0-2-1.5-3.7-4-4.5 2.5-.8 4-2.5 4-4.5 0-3-3.6-5.5-8-5.5zm0 3c2.8 0 5 1.3 5 3s-2.2 3-5 3-5-1.3-5-3 2.2-3 5-3zm0 14c-2.8 0-5-1.3-5-3s2.2-3 5-3 5 1.3 5 3-2.2 3-5 3z" fill="white" opacity="0.95"/>
</svg>
